<svg id="Capa_1" data-name="Capa 1" xmlns="http://www.w3.org/2000/svg" viewBox="0 0 1552.35 752.6"><defs><style>.cls-1{opacity:0.15;}.cls-2,.cls-3{fill:#fff;}.cls-2{stroke:#fff;stroke-miterlimit:10;}</style></defs><title>Hero</title><g class="cls-1"><path class="cls-2" d="M361.28,296.51a11.22,11.22,0,1,1-15.87,0A11.22,11.22,0,0,1,361.28,296.51Z" transform="translate(-189.84 -217.62)"/><path class="cls-2" d="M362.34,260.64c-15.4,5.44-32.3,14.12-46.11,27.94a136.57,136.57,0,0,0-10,11.09,148.38,148.38,0,0,0-20,33l38.82,38.83a146.07,146.07,0,0,0,44.06-30c13.82-13.81,22.5-30.71,27.94-46.11Zm-48.67,78.19a3.74,3.74,0,1,1,0,5.29A3.75,3.75,0,0,1,313.67,338.83Zm10.59-10.58,5.28-5.29a3.74,3.74,0,0,1,5.29,5.29l-5.29,5.29a3.74,3.74,0,0,1-5.28-5.29Zm15.86-10.57a18.7,18.7,0,1,1,26.45,0A18.73,18.73,0,0,1,340.12,317.68Z" transform="translate(-189.84 -217.62)"/><path class="cls-2" d="M408.88,248.91a3.74,3.74,0,0,0-2.78-1.09,166.13,166.13,0,0,0-44.91,9.3C342,263.89,326,273.58,313.67,285.93c-2.76,2.77-5.46,5.71-8,8.76-12.21-7.19-22-4.94-28.18-1.63-14.25,7.62-23.06,28.32-23.06,43.13a3.74,3.74,0,0,0,6.38,2.64,23.8,23.8,0,0,1,19.8-6.64l1.31,1.31a130.66,130.66,0,0,0-6.17,18.16,10.57,10.57,0,0,0,.45,6.5,35.27,35.27,0,0,0-10.1,7.12c-9.63,9.63-11.58,33.09-11.66,34.08a3.74,3.74,0,0,0,3.72,4h.3c1-.08,24.46-2,34.09-11.66a35.57,35.57,0,0,0,7.11-10.1,10.65,10.65,0,0,0,6.51.45,131.19,131.19,0,0,0,18.16-6.18l1.31,1.31A23.82,23.82,0,0,1,319,397a3.74,3.74,0,0,0,2.64,6.38c14.8,0,35.5-8.81,43.12-23.06,3.31-6.18,5.57-16-1.62-28.18,3-2.58,6-5.27,8.75-8,12.35-12.35,22-28.33,28.82-47.52a166.13,166.13,0,0,0,9.3-44.91A3.76,3.76,0,0,0,408.88,248.91Zm-53.1,99.6A143.46,143.46,0,0,1,326,367L290.8,331.83A144.38,144.38,0,0,1,309.28,302,137,137,0,0,1,319,291.23c11.08-11.08,25.38-19.9,42.52-26.26l31.34,31.35c-6.35,17.13-15.17,31.43-26.25,42.51A135.14,135.14,0,0,1,355.78,348.51Zm-93-20.37c2.32-11.25,9.07-23.58,18.23-28.49,6.11-3.27,12.8-2.94,19.91,1a151.56,151.56,0,0,0-15.71,25.61,4,4,0,0,0-2-1.16A31.9,31.9,0,0,0,262.76,328.14Zm24.46,58.29c-5.13,5.15-17.2,7.86-24.82,9,1.11-7.62,3.82-19.69,9-24.83a27.15,27.15,0,0,1,9.57-6.3l12.59,12.59A26.71,26.71,0,0,1,287.22,386.43Zm17.06-11.6a3.51,3.51,0,0,1-3.27-1.06l-6.66-6.66-.83-.83-9.5-9.49a3.54,3.54,0,0,1-1.06-3.27,122.92,122.92,0,0,1,4.67-14.28l30.93,30.92A121,121,0,0,1,304.28,374.83Zm53.86,2c-4.9,9.16-17.24,15.9-28.48,18.23,3.58-6.75,4.37-15.34,3.06-20.55a3.88,3.88,0,0,0-1.14-1.89,150.37,150.37,0,0,0,25.62-15.71C361.09,364,361.41,370.69,358.14,376.81Zm37.37-88.38-26.14-26.14a167.26,167.26,0,0,1,32.82-6.68A168.93,168.93,0,0,1,395.51,288.43Z" transform="translate(-189.84 -217.62)"/><path class="cls-2" d="M297.81,418.17l10.58-10.58a3.74,3.74,0,0,0-5.29-5.29l-10.58,10.58a3.74,3.74,0,0,0,5.29,5.29Z" transform="translate(-189.84 -217.62)"/><path class="cls-2" d="M244.91,365.28l10.58-10.58a3.74,3.74,0,0,0-5.29-5.29L239.62,360a3.74,3.74,0,1,0,5.29,5.29Z" transform="translate(-189.84 -217.62)"/><path class="cls-2" d="M276.65,407.59l-25.34,25.34a3.74,3.74,0,1,0,5.29,5.29l25.34-25.34a3.74,3.74,0,0,0-5.29-5.29Z" transform="translate(-189.84 -217.62)"/><path class="cls-2" d="M246.73,407.59l-25.34,25.34a3.74,3.74,0,1,0,5.29,5.29L252,412.88a3.74,3.74,0,0,0-5.29-5.29Z" transform="translate(-189.84 -217.62)"/><path class="cls-2" d="M224.87,406.48l25.33-25.34a3.74,3.74,0,1,0-5.29-5.28l-25.33,25.33a3.74,3.74,0,1,0,5.29,5.29Z" transform="translate(-189.84 -217.62)"/></g><g id="surface1" class="cls-1"><path class="cls-3" d="M1674.63,259.94a27.14,27.14,0,1,0,34.28,17.27A27.17,27.17,0,0,0,1674.63,259.94Zm22.2,15.87-12.37,24.56a4.18,4.18,0,0,1-5.61,1.86l-9.39-4.73a4.18,4.18,0,0,1,3.76-7.47l5.66,2.85,10.49-20.83a4.18,4.18,0,0,1,7.46,3.76Z" transform="translate(-189.84 -217.62)"/><path class="cls-3" d="M1730.39,235.82l0-.11c-.49-1.28-1-2.64-1.51-4.16a15.09,15.09,0,0,0-18.13-9.59c-15.84,4.26-29.55,3.16-43.14-3.47l-.11-.05a9.12,9.12,0,0,0-11.77,3.88l-.06.12c-7,13.41-17.33,22.45-32.6,28.45a15.1,15.1,0,0,0-8.86,18.5c.48,1.53.89,2.92,1.26,4.25l.08.24c4.93,16,11.07,35.83,23.58,51.56a71.66,71.66,0,0,0,24.75,20.07c10.86,5.3,23.72,8.12,38.22,8.36a11.51,11.51,0,0,0,1.43-.07,11,11,0,0,0,2-.44,10.77,10.77,0,0,0,1.84-.82,11.16,11.16,0,0,0,1.19-.79c11.5-8.83,20.14-18.75,25.71-29.48a71.88,71.88,0,0,0,7.94-30.85C1742.84,271.26,1735.93,251.61,1730.39,235.82Zm-36.13,83.61a35.5,35.5,0,1,1,22.59-44.84A35.54,35.54,0,0,1,1694.26,319.43Z" transform="translate(-189.84 -217.62)"/></g><g class="cls-1"><path class="cls-3" d="M1612,851.66l21.33-8.5,2.83,7.11-21.32,8.5Z" transform="translate(-189.84 -217.62)"/><path class="cls-3" d="M1663.22,839.46l-20,8,1.42,3.56a3.82,3.82,0,0,1-2.14,5l-28.43,11.33a3.81,3.81,0,0,1-5-2.13l-1.42-3.56-20,8a11.45,11.45,0,0,1-13-3.25l-28.06-33.25,30.94,77.62a11.49,11.49,0,0,0,14.92,6.41l100-39.86a11.48,11.48,0,0,0,6.41-14.91l-30.94-77.63,2.51,43.44A11.47,11.47,0,0,1,1663.22,839.46Z" transform="translate(-189.84 -217.62)"/><path class="cls-3" d="M1614.16,784.87l-28.43,11.34a11.48,11.48,0,0,0-6.41,14.91l1.41,3.56-29.66,11.82,29.44,34.88a3.82,3.82,0,0,0,4.34,1.09l20-8-1.41-3.55a3.81,3.81,0,0,1,2.14-5L1634,834.63a3.83,3.83,0,0,1,5,2.14l1.42,3.55,20-8a3.83,3.83,0,0,0,2.41-3.77L1660.16,783l-29.67,11.83-1.41-3.56A11.5,11.5,0,0,0,1614.16,784.87Zm-26.32,27-1.42-3.55a3.83,3.83,0,0,1,2.14-5L1617,792a3.83,3.83,0,0,1,5,2.14l1.42,3.55Z" transform="translate(-189.84 -217.62)"/></g><g class="cls-1"><path class="cls-3" d="M1492.68,602l-28.12-66.56a7.67,7.67,0,1,0-14.14,6L1478.54,608a7.67,7.67,0,1,0,14.14-6Z" transform="translate(-189.84 -217.62)"/><path class="cls-3" d="M1444.25,546.51l-1.09,1.64a82.4,82.4,0,0,1-30.72,27.31l15.3,36.21c13-4.33,27.32-5.81,40.9-3.23l1.93.37Z" transform="translate(-189.84 -217.62)"/><path class="cls-3" d="M1405.55,578.87l-24.74,10.46a11.51,11.51,0,0,0-6.13,15.09l6,14.14a11.51,11.51,0,0,0,15.08,6.12l24.75-10.45Zm-8.71,28.69a3.84,3.84,0,0,1-3-7.07l7.07-3a3.84,3.84,0,1,1,3,7.07Z" transform="translate(-189.84 -217.62)"/><path class="cls-3" d="M1427.43,639.75l6.8-2.88a11.5,11.5,0,0,0,6.12-15.08l-2.13-5.06a72.6,72.6,0,0,0-7.49,2l2.55,6a3.82,3.82,0,0,1-2,5l-6.91,2.92-4.39-9.93-14.14,6,9.79,22.19a7.68,7.68,0,0,0,14.14-6Z" transform="translate(-189.84 -217.62)"/><path class="cls-3" d="M1484.64,540a3.83,3.83,0,0,0-5,2.11l-2.88,7.11a3.84,3.84,0,1,0,7.11,2.89l2.89-7.11A3.84,3.84,0,0,0,1484.64,540Z" transform="translate(-189.84 -217.62)"/><path class="cls-3" d="M1501.54,580l-7.11-2.88a3.84,3.84,0,1,0-2.89,7.11l7.12,2.88a3.84,3.84,0,1,0,2.88-7.11Z" transform="translate(-189.84 -217.62)"/><path class="cls-3" d="M1505.18,557.85a3.82,3.82,0,0,0-5-2l-10,4.23a3.83,3.83,0,1,0,3,7.06l10-4.22A3.83,3.83,0,0,0,1505.18,557.85Z" transform="translate(-189.84 -217.62)"/></g><g class="cls-1"><path class="cls-3" d="M307,650.83l-85.57-27a9.52,9.52,0,0,0-4.19-.32l31.84,61.14L262.64,678h0l48-25A9.64,9.64,0,0,0,307,650.83Z" transform="translate(-189.84 -217.62)"/><path class="cls-3" d="M313.56,658.64l-45.14,23.5,23.5,45.14a9.31,9.31,0,0,0,2.15-3.62l19.17-60.83A9.52,9.52,0,0,0,313.56,658.64Z" transform="translate(-189.84 -217.62)"/><path class="cls-3" d="M211.57,626.5a9.56,9.56,0,0,0-2.15,3.62L190.26,691a9.23,9.23,0,0,0-.32,4.19l45.14-23.5Z" transform="translate(-189.84 -217.62)"/><path class="cls-3" d="M262.76,685.09l-13.58,6.73a3.19,3.19,0,0,1-4.3-1.36L238,677.29,192.88,700.8A9.64,9.64,0,0,0,196.5,703l85.57,27a9.56,9.56,0,0,0,4.2.32Z" transform="translate(-189.84 -217.62)"/></g><g id="surface1-2" data-name="surface1" class="cls-1"><path class="cls-3" d="M514.26,815.28l-12.86,4.39c-.63-2-1.28-4-2-6-.77-2.26-2.71-3.64-4.33-3.09L432.25,832c-1.62.55-2.31,2.83-1.54,5.09.68,2,1.39,4,2.11,6L420,847.45c-1.62.55-2.31,2.83-1.54,5.09C424.69,870.88,434,887,444.73,898s21.32,15.44,30.44,13.13a37.21,37.21,0,0,0,8.9,5.28l6.2,18.19-4.92,1.68c-6,2-8.49,10.43-5.66,18.73l2.34,6.87-.2.07c-1.62.55-2.31,2.83-1.54,5.09s2.71,3.65,4.33,3.09l53.43-18.22c1.62-.55,2.3-2.83,1.53-5.1s-2.71-3.64-4.33-3.09l-.21.07-2.34-6.86c-2.83-8.3-10-13.4-15.92-11.37l-4.93,1.68L505.65,909a37.33,37.33,0,0,0,3.81-9.61c8.63-3.75,14.31-14,16.07-29,1.78-15.21-.69-33.69-6.94-52C517.82,816.12,515.88,814.73,514.26,815.28Zm-66.19,76.48c-8.83-9-16.66-22.11-22.31-37.15L436,851.14c7.43,18.32,16.46,34.51,26.05,46.54q2.29,2.88,4.56,5.35C460.8,902.12,454.45,898.29,448.07,891.76Zm71-24.23c-1.06,9.07-3.74,16-7.75,20.22q.28-3.35.34-7c.24-15.39-2.51-33.72-7.82-52.76l10.18-3.48C518.78,839.84,520.56,855,519.1,867.53Z" transform="translate(-189.84 -217.62)"/></g></svg>